<svg width="369" height="114" viewBox="0 0 369 114" fill="none" xmlns="http://www.w3.org/2000/svg">
<path d="M328.558 61.5908C327.778 61.5908 327.122 61.3174 326.589 60.7705C326.056 60.2236 325.789 59.5605 325.789 58.7812C325.789 58.002 326.056 57.3457 326.589 56.8125C327.122 56.2656 327.778 55.9922 328.558 55.9922C329.337 55.9922 329.993 56.2656 330.526 56.8125C331.073 57.3457 331.347 58.002 331.347 58.7812C331.347 59.5605 331.073 60.2236 330.526 60.7705C329.993 61.3174 329.337 61.5908 328.558 61.5908ZM319.985 97.2949V92.6602C320.204 92.7012 320.416 92.7285 320.621 92.7422C320.812 92.7559 320.997 92.7627 321.175 92.7627C322.556 92.7627 323.643 92.3115 324.436 91.4092C325.229 90.5205 325.625 89.2832 325.625 87.6973V66.4922H331.511V87.9639C331.511 91.1494 330.813 93.5625 329.419 95.2031C328.024 96.8438 325.987 97.6641 323.308 97.6641C322.802 97.6641 322.275 97.6299 321.729 97.5615C321.182 97.5068 320.601 97.418 319.985 97.2949ZM350.718 97.2539H344.812V66.4922H349.98L350.288 69.2812C351.163 68.2832 352.209 67.5039 353.425 66.9434C354.656 66.3691 355.996 66.082 357.445 66.082C359.332 66.082 361.006 66.5469 362.469 67.4766C363.932 68.3926 365.087 69.6572 365.935 71.2705C366.783 72.8701 367.207 74.6953 367.207 76.7461C367.207 78.7832 366.783 80.6084 365.935 82.2217C365.087 83.835 363.932 85.1064 362.469 86.0361C361.006 86.9521 359.332 87.4102 357.445 87.4102C356.105 87.4102 354.861 87.1709 353.712 86.6924C352.578 86.2002 351.58 85.5234 350.718 84.6621V97.2539ZM355.948 82.1191C356.973 82.1191 357.876 81.8936 358.655 81.4424C359.434 80.9775 360.043 80.3418 360.48 79.5352C360.931 78.7148 361.157 77.7852 361.157 76.7461C361.157 75.6934 360.931 74.7637 360.48 73.957C360.043 73.1504 359.434 72.5146 358.655 72.0498C357.876 71.585 356.98 71.3525 355.968 71.3525C355.011 71.3525 354.15 71.5645 353.384 71.9883C352.619 72.3984 351.997 72.9727 351.518 73.7109C351.053 74.4492 350.787 75.2969 350.718 76.2539V77.2793C350.787 78.209 351.053 79.043 351.518 79.7812C351.983 80.5059 352.598 81.0801 353.364 81.5039C354.129 81.9141 354.991 82.1191 355.948 82.1191Z" fill="white"/>
<path d="M297.326 98.6055C296.115 98.6055 295.126 98.2321 294.359 97.4854C293.613 96.7184 293.239 95.7194 293.239 94.4883C293.239 93.2572 293.613 92.2682 294.359 91.5215C295.126 90.7546 296.115 90.3711 297.326 90.3711C298.557 90.3711 299.556 90.7546 300.323 91.5215C301.09 92.2682 301.474 93.2572 301.474 94.4883C301.474 95.7194 301.09 96.7184 300.323 97.4854C299.556 98.2321 298.557 98.6055 297.326 98.6055Z" fill="white"/>
<path d="M5.904 62.238L5.822 24.6H32.062L32.144 62.238H5.904ZM36.244 98.236L55.842 24.928H82.082L62.484 98.236H36.244ZM104.304 62.238L104.222 24.6H130.462L130.544 62.238H104.304ZM134.644 98.236L154.242 24.928H180.482L160.884 98.236H134.644ZM202.704 62.238L202.622 24.6H228.862L228.944 62.238H202.704ZM233.044 98.236L252.642 24.928H278.882L259.284 98.236H233.044Z" fill="white"/>
</svg>
